<svg width="205" height="31" viewBox="0 0 205 31" fill="none" xmlns="http://www.w3.org/2000/svg">
<g id="Group 13">
<path id="Vector" d="M115.098 14.5895C117.553 11.6373 120.681 11.2152 123.99 11.8547C127.97 12.6237 130.183 16.2845 129.687 21.1648C126.023 21.1648 122.322 21.1648 118.517 21.1648C118.436 22.4564 119.095 23.0309 119.902 23.3941C121.337 24.0395 122.912 24.2091 124.184 23.233C125.17 22.4762 125.984 22.4238 127.035 22.8321C127.794 23.1268 128.602 23.2952 129.397 23.5225C127.941 27.0037 123.723 28.6489 119.295 27.5264C114.709 26.3636 113.049 23.1746 113.675 16.7309C111.229 16.1099 109.713 16.973 109.345 19.3738C109.143 20.695 109.218 22.0608 109.196 23.4069C109.175 24.6714 109.191 25.9366 109.191 27.3781C107.577 27.3781 106.058 27.3781 104.401 27.3781C104.401 22.3102 104.401 17.1883 104.401 11.9364C105.972 11.9364 107.505 11.9364 109.026 11.9364C109.145 12.3545 109.246 12.7093 109.361 13.1105C110.74 12.3358 112.086 11.4868 113.975 11.9185C114.039 13.0036 114.106 14.1326 114.195 15.6517C114.646 15.1348 114.822 14.9331 115.098 14.5895ZM123.356 16.1351C120.4 15.2994 118.89 15.9949 118.572 18.2464C120.664 18.2464 122.768 18.2464 125.375 18.2464C124.602 17.3597 124.138 16.8278 123.356 16.1351Z" fill="#0C1019"/>
<path id="Vector_2" d="M149.152 23.7365C147.017 26.4784 144.324 27.6177 141.037 27.5626C137.838 27.5088 134.636 27.5509 131.317 27.5509C131.317 20.4233 131.317 13.445 131.317 6.34497C135.256 6.34497 139.136 6.13452 142.982 6.40337C146.935 6.67964 150.194 9.96969 150.915 14.1428C151.485 17.4447 151.302 20.7148 149.152 23.7365ZM144.6 21.2185C146.14 19.138 146.428 16.838 145.645 14.4261C144.998 12.4299 143.651 11.0585 141.483 10.8796C139.797 10.7405 138.09 10.8518 136.358 10.8518C136.358 14.9703 136.358 18.9369 136.358 22.9775C137.802 22.9775 139.071 22.9208 140.333 22.9918C141.923 23.0812 143.277 22.6585 144.6 21.2185Z" fill="#070B17"/>
<path id="Vector_3" d="M4.16672 20.7303C3.69947 20.7999 3.23416 20.8901 2.76453 20.9345C1.97612 21.0091 1.18494 21.0545 0.142559 21.1306C0.137321 16.7566 -0.477893 12.5785 0.888854 8.5267C2.45147 3.89433 6.81484 0.773161 11.7337 0.430792C15.9549 0.136967 19.54 1.27182 22.3607 4.56137C23.9118 6.37019 25.0481 8.34887 25.2526 10.7461C25.4237 12.7516 25.498 14.7672 25.5398 16.7799C25.5464 17.0977 25.154 17.4237 24.8482 17.8847C24.7503 18.0234 24.7523 18.061 24.8759 17.9177C24.7635 17.5653 24.5275 17.3562 24.3094 17.1424C24.3273 17.1376 24.3007 17.1633 24.4047 17.0256C24.2848 16.6723 24.0608 16.4567 23.8543 16.2422C23.8719 16.2433 23.866 16.278 23.875 16.1336C23.7198 15.9268 23.5556 15.8644 23.4078 15.7988C23.4242 15.7957 23.4179 15.8285 23.4268 15.684C23.2711 15.4778 23.1065 15.416 22.959 15.3514C22.9761 15.3484 22.9781 15.3831 22.9506 15.211C22.6347 14.999 22.3463 14.9592 22.0709 14.9043C22.0839 14.8893 22.0636 14.9234 22.1274 14.7666C21.9925 14.5595 21.7939 14.5092 21.6114 14.4541C21.6276 14.4492 21.6234 14.4827 21.625 14.3186C20.773 13.3187 19.402 13.346 18.8855 11.7877C17.8413 8.63784 14.7432 7.17343 11.3005 7.75698C8.57491 8.21898 6.51569 10.6877 6.34695 13.8422C6.26362 15.3997 6.36163 16.967 6.3707 18.5137C6.36382 18.4975 6.39853 18.5029 6.25275 18.4892C6.0463 18.6416 5.98565 18.8077 5.92059 18.9574C5.91619 18.941 5.94905 18.9497 5.79869 18.9365C5.59164 19.0894 5.53495 19.2555 5.47251 19.4049C5.46678 19.3882 5.4994 19.4018 5.33157 19.3625C4.97088 19.6533 4.77803 19.9834 4.57361 20.2987C4.56205 20.2839 4.59552 20.301 4.42252 20.241C4.20909 20.3752 4.16867 20.5694 4.12923 20.7453C4.1302 20.7269 4.16672 20.7303 4.16672 20.7303Z" fill="#2184E2"/>
<path id="Vector_4" d="M24.7315 18.0248C25.8404 22.0367 25.5746 26.1282 25.4957 30.332C23.5567 30.8468 21.6439 30.4794 19.4231 30.5725C19.4098 29.3353 19.3967 28.1781 19.3851 27.0208C19.3739 25.9013 19.4589 24.7711 19.3346 23.6645C19.0542 21.1683 17.2242 20.1799 15.0172 21.3382C14.1695 21.7831 13.422 22.4319 12.6642 23.0325C10.6186 24.6538 8.64603 26.3731 6.54171 27.913C4.64711 29.2995 2.50575 29.7099 0.147095 28.8825C0.147095 26.6 0.147095 24.3791 0.147095 22.3395C1.51614 21.8902 2.79735 21.4698 4.12262 20.8897C4.16669 20.7302 4.13017 20.7268 4.27217 20.7473C4.47461 20.6121 4.53506 20.4565 4.59549 20.3008C4.59549 20.3008 4.56202 20.2838 4.73969 20.3206C5.11138 20.0388 5.30538 19.7203 5.49936 19.4017C5.49936 19.4017 5.46675 19.3881 5.64485 19.4671C5.86498 19.3473 5.907 19.1484 5.94902 18.9496C5.94902 18.9496 5.91616 18.9408 6.0937 19.0278C6.31367 18.9108 6.35608 18.7068 6.3985 18.5028C6.3985 18.5028 6.36379 18.4974 6.49955 18.6435C8.05402 17.6945 9.46143 16.5844 10.8939 15.5076C13.7645 13.3498 16.8833 13.0126 20.2232 14.2529C20.6584 14.4145 21.1552 14.4101 21.6234 14.4826C21.6234 14.4826 21.6276 14.4491 21.5494 14.6082C21.6686 14.8193 21.8661 14.8713 22.0636 14.9233C22.0636 14.9233 22.0839 14.8892 22.1018 15.077C22.4058 15.3042 22.692 15.3436 22.9781 15.383C22.9781 15.383 22.9761 15.3483 22.8885 15.5257C23.0065 15.7448 23.2122 15.7866 23.4179 15.8283C23.4179 15.8283 23.4242 15.7955 23.3383 15.973C23.457 16.1929 23.6615 16.2354 23.866 16.2779C23.866 16.2779 23.8719 16.2432 23.7239 16.3706C23.8175 16.7198 24.0591 16.9415 24.3006 17.1632C24.3006 17.1632 24.3273 17.1375 24.2506 17.2859C24.3667 17.6431 24.5595 17.852 24.7523 18.0609C24.7523 18.0609 24.7502 18.0233 24.7315 18.0248Z" fill="#102F6E"/>
<path id="Vector_5" d="M34.7986 14.6134C33.794 11.3808 34.5317 9.14529 37.0392 7.42639C41.2714 4.52514 48.516 6.06791 51.1784 10.448C51.3655 10.7557 51.4566 11.1218 51.6308 11.5568C50.1116 12.0021 48.6846 12.4204 47.3935 12.7988C46.2838 12.074 45.3498 11.3368 44.3075 10.8169C43.1343 10.2317 41.8237 10.1421 40.6283 10.7601C40.1717 10.9961 39.641 11.5953 39.6292 12.0418C39.6176 12.4837 40.1232 13.1428 40.5686 13.3519C41.5742 13.8241 42.6892 14.0585 43.7479 14.424C45.4399 15.0081 47.1687 15.5156 48.8 16.2399C53.722 18.4251 52.5595 23.7207 49.7287 25.9179C44.4902 29.984 36.112 27.8644 33.3502 21.4888C34.9018 21.0103 36.4282 20.5394 37.9671 20.0647C38.4813 20.6976 38.8657 21.2431 39.3221 21.7196C40.9952 23.466 43.0736 23.8016 45.3109 23.2353C46.0972 23.0362 47.0001 22.515 46.8096 21.5543C46.6882 20.9426 46.0854 20.1733 45.513 19.9501C43.5696 19.1923 41.5474 18.634 39.5483 18.0222C37.6381 17.4376 35.9547 16.5431 34.7986 14.6134Z" fill="#0C1019"/>
<path id="Vector_6" d="M169.422 18.4833C169.43 14.1479 169.437 10.0372 169.455 5.92657C169.455 5.79985 169.576 5.67368 169.687 5.45728C171.111 5.45728 172.583 5.45728 174.242 5.45728C174.242 7.90754 174.242 10.3467 174.242 13.1441C176.59 11.6172 178.843 11.2424 181.221 12.0187C182.852 12.5515 184.076 13.6216 185.012 15.0252C187.066 18.109 186.714 22.738 184.368 25.4896C182.428 27.765 178.185 28.8307 174.738 26.7396C173.211 28.3093 171.355 27.2704 169.422 27.5576C169.422 24.4941 169.422 21.601 169.422 18.4833ZM174.274 18.9896C174.267 19.5093 174.187 20.0405 174.266 20.5466C174.561 22.4259 175.942 23.6231 177.793 23.6697C179.529 23.7134 180.868 22.6438 181.335 20.8393C181.843 18.8719 180.877 16.8502 179.134 16.2353C177.117 15.5237 175.422 16.3807 174.274 18.9896Z" fill="#0C1019"/>
<path id="Vector_7" d="M164.433 22.5842C165.604 22.9319 166.598 23.2369 167.833 23.6158C167.377 24.2505 167.061 24.8229 166.623 25.278C163.56 28.4611 157.726 28.7759 154.319 25.9685C151.808 23.8997 150.902 20.4108 151.989 16.9984C152.965 13.9381 155.757 11.8196 159.023 11.6624C163.291 11.4569 166.301 13.1027 167.457 16.4966C167.924 17.8708 167.985 19.3836 168.276 21.0973C166.08 21.407 164.159 21.2245 162.255 21.258C160.416 21.2903 158.576 21.265 156.55 21.265C156.822 22.6949 157.585 23.2911 158.625 23.6027C159.963 24.0035 161.257 23.9558 162.511 23.2277C163.045 22.9175 163.671 22.7654 164.433 22.5842ZM159.811 15.7392C158.163 15.7919 157.051 16.5374 156.35 18.4603C158.785 18.3126 160.932 18.6384 163.143 18.234C162.242 16.2867 162.242 16.2867 159.811 15.7392Z" fill="#0C1019"/>
<path id="Vector_8" d="M58.4218 23.0512C60.3613 24.0655 62.0918 24.221 63.8228 22.9206C64.2182 22.6235 64.9255 22.5469 65.4384 22.6422C66.4576 22.8316 67.4416 23.2112 68.7592 23.6083C68.1338 24.4021 67.6962 25.1561 67.0782 25.7082C64.1918 28.2871 59.2142 28.6391 55.9803 26.4964C52.822 24.4039 51.9471 21.4044 52.8218 17.4076C53.553 14.0661 56.5257 11.8225 59.9887 11.6654C64.5181 11.46 67.6359 13.3982 68.6169 17.1914C68.9274 18.392 68.8648 19.6892 68.9934 21.178C65.1056 21.178 61.4076 21.178 57.2645 21.178C57.741 22.005 58.0101 22.4721 58.4218 23.0512ZM60.5625 15.7458C58.2725 16.2518 57.8855 16.6061 57.7378 18.2773C59.7835 18.2773 61.8321 18.2773 64.0476 18.2773C63.5959 16.464 62.4557 15.8667 60.5625 15.7458Z" fill="#0C1019"/>
<path id="Vector_9" d="M101.945 22.9584C101.945 24.5177 101.945 25.8557 101.945 27.4218C100.071 27.395 98.2393 28.2516 96.7714 26.8443C95.2403 27.1865 93.752 27.7539 92.2449 27.8091C88.626 27.9417 86.4918 25.9235 86.3446 22.254C86.2132 18.9786 86.317 15.6938 86.317 12.2607C87.9164 12.2607 89.4382 12.2607 91.2176 12.2607C91.2176 14.1795 91.2075 16.0996 91.2216 18.0196C91.2293 19.0652 91.1935 20.1218 91.33 21.1532C91.5016 22.4501 92.3208 23.2094 93.4927 23.3881C94.7448 23.5791 95.9929 23.0453 96.4442 21.8575C96.8068 20.9032 96.9768 19.8332 97.0146 18.8065C97.0967 16.5727 97.0399 14.3337 97.0399 11.9526C98.6761 11.9526 100.192 11.9526 101.945 11.9526C101.945 15.5985 101.945 19.1678 101.945 22.9584Z" fill="#0C1019"/>
<path id="Vector_10" d="M79.3133 11.9432C82.3391 12.5368 84.3654 14.0607 85.5159 16.9667C84.0159 17.3991 82.6671 17.7879 81.2213 18.2046C80.2202 17.1051 79.2133 15.8522 77.5258 16.169C76.6966 16.3246 75.7679 16.6707 75.1776 17.2367C73.7012 18.6525 73.8845 21.2763 75.3936 22.6805C76.9651 24.1429 79.104 23.7563 81.1036 21.5528C81.7425 21.7063 82.4578 21.8631 83.1645 22.0522C83.879 22.2435 84.5848 22.4668 85.5948 22.7648C85.0781 23.6323 84.7452 24.4593 84.1861 25.0835C81.8693 27.6703 78.8825 28.3492 75.6114 27.6494C72.4174 26.9662 70.3792 24.9529 69.552 21.7397C68.3071 16.9041 71.7589 12.2058 76.8941 11.8269C77.6339 11.7724 78.385 11.8699 79.3133 11.9432Z" fill="#0D111C"/>
<path id="Vector_11" d="M200.526 21.3803C201.067 23.4957 201.067 23.4957 203.892 23.3749C204.234 24.4748 204.586 25.6023 205 26.9316C202.823 28.0192 200.6 28.2817 198.381 27.2721C196.295 26.3226 195.686 24.3693 195.611 22.2534C195.543 20.3198 195.597 18.382 195.597 16.2913C194.8 16.209 194.104 16.1371 193.328 16.057C193.328 14.6816 193.328 13.4286 193.328 12.0062C193.988 11.8987 194.682 11.7858 195.599 11.6364C195.599 10.1448 195.599 8.60973 195.599 6.97437C197.283 6.97437 198.746 6.97437 200.452 6.97437C200.452 8.51016 200.452 10.0377 200.452 11.7297C201.927 11.7297 203.171 11.7297 204.589 11.7297C204.589 13.2648 204.589 14.629 204.589 16.1575C203.264 16.1575 202.018 16.1575 200.524 16.1575C200.524 17.9358 200.524 19.5589 200.526 21.3803Z" fill="#0D111C"/>
<path id="Vector_12" d="M192.472 17.5891C192.472 21.0032 192.472 24.1933 192.472 27.4685C190.792 27.4685 189.323 27.4685 187.708 27.4685C187.708 22.3177 187.708 17.2071 187.708 11.9502C189.193 11.9502 190.65 11.9502 192.26 11.9502C192.716 13.6849 192.356 15.5407 192.472 17.5891Z" fill="#0D111C"/>
<path id="Vector_13" d="M192.892 7.92424C192.459 9.37682 191.562 10.0214 190.227 10.0548C188.731 10.0923 187.585 9.18585 187.363 7.8131C187.133 6.39082 187.897 5.10177 189.23 4.66401C190.515 4.24201 192.078 4.81747 192.645 6.04161C192.879 6.54828 192.835 7.18412 192.892 7.92424Z" fill="#0D111C"/>
</g>
</svg>
